<svg width="194" height="36" viewBox="0 0 194 36" fill="none" xmlns="http://www.w3.org/2000/svg">
<path d="M35.5771 5.61596H38.5225C39.0965 5.61596 39.6252 5.71964 40.1085 5.927C40.5919 6.12668 41.0072 6.407 41.3547 6.76796C41.7096 7.12892 41.9853 7.55514 42.1816 8.04668C42.378 8.53822 42.4762 9.07196 42.4762 9.64796C42.4762 10.224 42.378 10.7577 42.1816 11.2492C41.9853 11.7408 41.7096 12.167 41.3547 12.528C41.0072 12.8889 40.5919 13.1731 40.1085 13.3804C39.6252 13.5801 39.0965 13.68 38.5225 13.68H35.5771V5.61596ZM37.1858 7.11356V12.1824H38.33C38.7151 12.1824 39.0587 12.1209 39.3609 11.998C39.6705 11.8751 39.931 11.7023 40.1425 11.4796C40.3615 11.2569 40.5277 10.992 40.641 10.6848C40.7618 10.3699 40.8222 10.0243 40.8222 9.64796C40.8222 9.27162 40.7618 8.9299 40.641 8.62268C40.5277 8.30782 40.3615 8.03898 40.1425 7.81628C39.931 7.59358 39.6705 7.42078 39.3609 7.29788C39.0587 7.175 38.7151 7.11356 38.33 7.11356H37.1858ZM43.9075 5.61596H49.1413V7.11356H45.5162V8.7494H48.6882V10.247H45.5162V12.1824H49.1413V13.68H43.9075V5.61596ZM52.7312 13.68L49.8878 5.61596H51.655L53.6148 11.6409L55.5747 5.61596H57.2966L54.4531 13.68H52.7312ZM58.389 5.61596H63.6228V7.11356H59.9976V8.7494H63.1696V10.247H59.9976V12.1824H63.6228V13.68H58.389V5.61596ZM65.0489 5.61596H66.6575V12.1824H70.2826V13.68H65.0489V5.61596ZM75.3939 13.8643C74.7821 13.8643 74.2228 13.7606 73.7173 13.5532C73.211 13.3382 72.7728 13.0425 72.4032 12.6662C72.0329 12.2899 71.7461 11.8445 71.5422 11.3299C71.3383 10.8153 71.2363 10.2547 71.2363 9.64796C71.2363 9.04122 71.3383 8.48062 71.5422 7.96604C71.7461 7.45146 72.0329 7.00604 72.4032 6.62972C72.7728 6.2534 73.211 5.96156 73.7173 5.7542C74.2228 5.53916 74.7821 5.43164 75.3939 5.43164C75.9978 5.43164 76.5529 5.53916 77.0592 5.7542C77.5647 5.96156 77.9994 6.2534 78.3619 6.62972C78.7315 7.00604 79.019 7.45146 79.2229 7.96604C79.4268 8.48062 79.5288 9.04122 79.5288 9.64796C79.5288 10.2547 79.4268 10.8153 79.2229 11.3299C79.019 11.8445 78.7315 12.2899 78.3619 12.6662C77.9994 13.0425 77.5647 13.3382 77.0592 13.5532C76.5529 13.7606 75.9978 13.8643 75.3939 13.8643ZM75.4165 12.3206C75.779 12.3206 76.1076 12.2553 76.4021 12.1248C76.7037 11.9865 76.9643 11.7984 77.1838 11.5603C77.4026 11.3145 77.5725 11.0304 77.6936 10.7078C77.8139 10.3775 77.8748 10.0166 77.8748 9.62492C77.8748 9.24858 77.8139 8.89916 77.6936 8.5766C77.5725 8.25404 77.4026 7.97374 77.1838 7.73564C76.9643 7.49754 76.7037 7.31322 76.4021 7.18268C76.1076 7.04444 75.779 6.97532 75.4165 6.97532C75.0384 6.97532 74.6951 7.04444 74.3856 7.18268C74.0755 7.31322 73.8079 7.49754 73.5813 7.73564C73.3618 7.97374 73.1919 8.25404 73.0715 8.5766C72.9505 8.89916 72.8903 9.24858 72.8903 9.62492C72.8903 10.0166 72.9505 10.3775 73.0715 10.7078C73.1919 11.0304 73.3618 11.3145 73.5813 11.5603C73.8079 11.7984 74.0755 11.9865 74.3856 12.1248C74.6951 12.2553 75.0384 12.3206 75.4165 12.3206ZM82.5209 9.53276H84.0616C84.4389 9.53276 84.737 9.41756 84.9565 9.18716C85.1831 8.95676 85.2964 8.66106 85.2964 8.30012C85.2964 7.93918 85.1831 7.64348 84.9565 7.41308C84.737 7.18268 84.4389 7.06748 84.0616 7.06748H82.5209V9.53276ZM80.9576 13.68V5.61596H84.1522C84.56 5.61596 84.9296 5.68124 85.2624 5.8118C85.6022 5.93468 85.8925 6.11516 86.1347 6.35324C86.3839 6.59132 86.5722 6.87548 86.7011 7.20572C86.837 7.52828 86.905 7.8931 86.905 8.30012C86.905 8.70714 86.837 9.07578 86.7011 9.40604C86.5722 9.7363 86.3839 10.0204 86.1347 10.2585C85.8925 10.4889 85.6022 10.6694 85.2624 10.8C84.9296 10.9229 84.56 10.9843 84.1522 10.9843H82.5209V13.68H80.9576ZM88.1929 5.61596H93.4267V7.11356H89.8016V8.7494H92.9728V10.247H89.8016V12.1824H93.4267V13.68H88.1929V5.61596ZM94.8526 5.61596H97.798C98.3715 5.61596 98.9005 5.71964 99.384 5.927C99.8669 6.12668 100.283 6.407 100.63 6.76796C100.985 7.12892 101.26 7.55514 101.457 8.04668C101.653 8.53822 101.752 9.07196 101.752 9.64796C101.752 10.224 101.653 10.7577 101.457 11.2492C101.26 11.7408 100.985 12.167 100.63 12.528C100.283 12.8889 99.8669 13.1731 99.384 13.3804C98.9005 13.5801 98.3715 13.68 97.798 13.68H94.8526V5.61596ZM96.4613 7.11356V12.1824H97.6055C97.9906 12.1824 98.334 12.1209 98.6364 11.998C98.9458 11.8751 99.2063 11.7023 99.418 11.4796C99.6368 11.2569 99.8032 10.992 99.9165 10.6848C100.037 10.3699 100.098 10.0243 100.098 9.64796C100.098 9.27162 100.037 8.9299 99.9165 8.62268C99.8032 8.30782 99.6368 8.03898 99.418 7.81628C99.2063 7.59358 98.9458 7.42078 98.6364 7.29788C98.334 7.175 97.9906 7.11356 97.6055 7.11356H96.4613ZM105.446 13.68L107.916 9.52124L105.616 5.61596H107.429L108.981 8.35772L110.533 5.61596H112.3L110 9.52124L112.47 13.68H110.589L108.935 10.7193L107.281 13.68H105.446ZM116.503 5.61596H119.448C120.022 5.61596 120.551 5.71964 121.034 5.927C121.518 6.12668 121.933 6.407 122.28 6.76796C122.635 7.12892 122.911 7.55514 123.107 8.04668C123.303 8.53822 123.402 9.07196 123.402 9.64796C123.402 10.224 123.303 10.7577 123.107 11.2492C122.911 11.7408 122.635 12.167 122.28 12.528C121.933 12.8889 121.518 13.1731 121.034 13.3804C120.551 13.5801 120.022 13.68 119.448 13.68H116.503V5.61596ZM118.111 7.11356V12.1824H119.256C119.641 12.1824 119.984 12.1209 120.286 11.998C120.596 11.8751 120.856 11.7023 121.068 11.4796C121.287 11.2569 121.453 10.992 121.567 10.6848C121.688 10.3699 121.748 10.0243 121.748 9.64796C121.748 9.27162 121.688 8.9299 121.567 8.62268C121.453 8.30782 121.287 8.03898 121.068 7.81628C120.856 7.59358 120.596 7.42078 120.286 7.29788C119.984 7.175 119.641 7.11356 119.256 7.11356H118.111ZM124.833 5.61596H130.067V7.11356H126.442V8.7494H129.613V10.247H126.442V12.1824H130.067V13.68H124.833V5.61596ZM134.382 13.8643C132.712 13.8643 131.553 13.127 130.904 11.6524L132.286 10.9612C132.505 11.422 132.788 11.7753 133.136 12.0211C133.483 12.2668 133.91 12.3897 134.416 12.3897C134.853 12.3897 135.216 12.3014 135.503 12.1248C135.79 11.9481 135.934 11.71 135.934 11.4105C135.934 11.1417 135.816 10.9344 135.583 10.7884C135.356 10.6425 135.069 10.5197 134.722 10.4198C134.382 10.3199 134.012 10.2201 133.612 10.1203C133.211 10.0204 132.837 9.88606 132.49 9.71708C132.15 9.54046 131.863 9.30618 131.629 9.01436C131.403 8.72254 131.289 8.33468 131.289 7.85084C131.289 7.4899 131.357 7.16348 131.493 6.87164C131.636 6.57212 131.833 6.31484 132.082 6.0998C132.339 5.88476 132.649 5.71964 133.011 5.60444C133.374 5.48924 133.782 5.43164 134.235 5.43164C134.96 5.43164 135.601 5.58908 136.16 5.90396C136.719 6.21884 137.161 6.695 137.486 7.33244L136.138 8.04668C135.964 7.67804 135.714 7.39386 135.39 7.1942C135.065 6.98684 134.684 6.88316 134.246 6.88316C133.815 6.88316 133.483 6.97148 133.249 7.14812C133.015 7.32474 132.898 7.52828 132.898 7.75868C132.898 7.99678 133.011 8.1811 133.238 8.31164C133.471 8.44218 133.762 8.55356 134.11 8.64572C134.457 8.73788 134.831 8.83386 135.232 8.93372C135.632 9.03358 136.005 9.17564 136.353 9.35996C136.7 9.53658 136.987 9.7785 137.214 10.0857C137.448 10.3852 137.565 10.7884 137.565 11.2953C137.565 11.687 137.489 12.0403 137.339 12.3552C137.195 12.67 136.983 12.9427 136.704 13.1731C136.425 13.3958 136.088 13.5648 135.696 13.68C135.311 13.8029 134.873 13.8643 134.382 13.8643ZM138.861 5.61596H140.47V13.68H138.861V5.61596ZM149.893 9.97052C149.893 10.5696 149.803 11.111 149.622 11.5948C149.44 12.071 149.183 12.4781 148.851 12.816C148.526 13.1539 148.13 13.415 147.662 13.5993C147.193 13.7759 146.672 13.8643 146.098 13.8643C145.464 13.8643 144.89 13.7568 144.376 13.5417C143.862 13.3267 143.421 13.031 143.051 12.6547C142.681 12.2783 142.394 11.8329 142.19 11.3184C141.993 10.8038 141.896 10.2432 141.896 9.63644C141.896 9.0374 141.993 8.48062 142.19 7.96604C142.394 7.45146 142.677 7.00604 143.04 6.62972C143.402 6.2534 143.836 5.96156 144.342 5.7542C144.848 5.53916 145.411 5.43164 146.03 5.43164C146.838 5.43164 147.548 5.61212 148.16 5.97308C148.779 6.32636 149.248 6.82556 149.565 7.47068L148.205 8.31164C147.986 7.86618 147.691 7.52446 147.322 7.28636C146.952 7.04828 146.518 6.92924 146.019 6.92924C145.641 6.92924 145.298 6.99836 144.988 7.1366C144.678 7.26714 144.414 7.45534 144.195 7.70108C143.976 7.93918 143.806 8.22718 143.685 8.56508C143.564 8.89534 143.504 9.25628 143.504 9.64796C143.504 10.0319 143.561 10.3929 143.674 10.7308C143.794 11.0611 143.964 11.3491 144.184 11.5948C144.41 11.8329 144.682 12.0211 145 12.1593C145.324 12.2976 145.691 12.3667 146.098 12.3667C146.687 12.3667 147.17 12.2207 147.548 11.9289C147.934 11.6371 148.171 11.2185 148.262 10.6732H145.362V9.22172H149.848C149.863 9.3753 149.874 9.51354 149.882 9.63644C149.889 9.75164 149.893 9.86302 149.893 9.97052ZM151.318 5.61596H152.995L156.54 11.1686V5.61596H158.058V13.68H156.382L152.836 8.12732V13.68H151.318V5.61596ZM159.825 5.61596H165.059V7.11356H161.434V8.7494H164.606V10.247H161.434V12.1824H165.059V13.68H159.825V5.61596ZM166.485 5.61596H169.431C170.004 5.61596 170.533 5.71964 171.017 5.927C171.5 6.12668 171.915 6.407 172.263 6.76796C172.618 7.12892 172.893 7.55514 173.09 8.04668C173.286 8.53822 173.384 9.07196 173.384 9.64796C173.384 10.224 173.286 10.7577 173.09 11.2492C172.893 11.7408 172.618 12.167 172.263 12.528C171.915 12.8889 171.5 13.1731 171.017 13.3804C170.533 13.5801 170.004 13.68 169.431 13.68H166.485V5.61596ZM168.094 7.11356V12.1824H169.238C169.623 12.1824 169.967 12.1209 170.269 11.998C170.578 11.8751 170.839 11.7023 171.051 11.4796C171.27 11.2569 171.436 10.992 171.549 10.6848C171.67 10.3699 171.73 10.0243 171.73 9.64796C171.73 9.27162 171.67 8.9299 171.549 8.62268C171.436 8.30782 171.27 8.03898 171.051 7.81628C170.839 7.59358 170.578 7.42078 170.269 7.29788C169.967 7.175 169.623 7.11356 169.238 7.11356H168.094ZM179.322 10.224V12.2745H181.146C181.47 12.2745 181.731 12.1824 181.927 11.998C182.131 11.8137 182.233 11.5641 182.233 11.2492C182.233 10.9344 182.131 10.6848 181.927 10.5004C181.731 10.3161 181.47 10.224 181.146 10.224H179.322ZM179.322 8.8646H180.953C181.232 8.8646 181.463 8.78014 181.644 8.61116C181.826 8.44218 181.916 8.21948 181.916 7.943C181.916 7.66652 181.826 7.44382 181.644 7.27484C181.463 7.10588 181.232 7.0214 180.953 7.0214H179.322V8.8646ZM177.759 5.61596H181.101C181.455 5.61596 181.78 5.66588 182.075 5.76572C182.376 5.85788 182.633 5.99612 182.845 6.18044C183.064 6.36476 183.23 6.58748 183.344 6.8486C183.464 7.10204 183.525 7.39004 183.525 7.7126C183.525 8.12732 183.426 8.48444 183.23 8.78396C183.033 9.08348 182.754 9.30618 182.392 9.45212C182.875 9.59806 183.237 9.83998 183.479 10.1779C183.721 10.5081 183.842 10.919 183.842 11.4105C183.842 11.7484 183.781 12.0556 183.661 12.3321C183.547 12.6086 183.381 12.8467 183.162 13.0464C182.943 13.246 182.671 13.4035 182.347 13.5187C182.029 13.6262 181.67 13.68 181.27 13.68H177.759V5.61596ZM186.755 13.68V10.5235L184.081 5.61596H185.826L187.582 9.11804L189.338 5.61596H191.037L188.363 10.5235V13.68H186.755ZM35.5771 23.616H37.2538L40.7996 29.1686V23.616H42.3176V31.68H40.641L37.0952 26.1273V31.68H35.5771V23.616ZM44.0845 23.616H45.6932V31.68H44.0845V23.616ZM47.4588 23.616H49.1354L52.6812 29.1686V23.616H54.1992V31.68H52.5226L48.9768 26.1273V31.68H47.4588V23.616ZM55.9662 23.616H61.1999V25.1136H57.5748V26.7494H60.7468V28.247H57.5748V30.1824H61.1999V31.68H55.9662V23.616ZM65.5148 31.8643C63.8458 31.8643 62.6865 31.127 62.037 29.6524L63.4191 28.9612C63.6381 29.422 63.9213 29.7753 64.2687 30.0211C64.6161 30.2668 65.0428 30.3897 65.5488 30.3897C65.9869 30.3897 66.3494 30.3014 66.6363 30.1248C66.9234 29.9481 67.0668 29.71 67.0668 29.4105C67.0668 29.1417 66.9498 28.9344 66.7156 28.7884C66.4891 28.6425 66.2021 28.5197 65.8547 28.4198C65.5148 28.3199 65.1448 28.2201 64.7445 28.1203C64.3442 28.0204 63.9704 27.8861 63.623 27.7171C63.2831 27.5405 62.9961 27.3062 62.762 27.0144C62.5354 26.7225 62.4221 26.3347 62.4221 25.8508C62.4221 25.4899 62.4901 25.1635 62.6261 24.8716C62.7696 24.5721 62.9659 24.3149 63.2151 24.0998C63.4719 23.8847 63.7816 23.7196 64.1441 23.6044C64.5066 23.4892 64.9144 23.4316 65.3675 23.4316C66.0926 23.4316 66.7345 23.5891 67.2934 23.904C67.8523 24.2188 68.2941 24.695 68.6188 25.3324L67.2707 26.0467C67.0971 25.678 66.8478 25.3939 66.5231 25.1942C66.1983 24.9868 65.8169 24.8832 65.3789 24.8832C64.9484 24.8832 64.6161 24.9715 64.382 25.1481C64.1479 25.3247 64.0308 25.5283 64.0308 25.7587C64.0308 25.9968 64.1441 26.1811 64.3706 26.3116C64.6048 26.4422 64.8956 26.5536 65.2429 26.6457C65.5904 26.7379 65.9642 26.8339 66.3645 26.9337C66.7648 27.0336 67.1386 27.1756 67.486 27.36C67.8334 27.5366 68.1204 27.7785 68.3469 28.0857C68.5811 28.3852 68.6981 28.7884 68.6981 29.2953C68.6981 29.687 68.6226 30.0403 68.4715 30.3552C68.3281 30.67 68.1166 30.9427 67.8372 31.1731C67.5578 31.3958 67.2217 31.5648 66.8289 31.68C66.4438 31.8029 66.0058 31.8643 65.5148 31.8643ZM73.8794 30.2976C74.0989 30.2976 74.3028 30.2745 74.4911 30.2284C74.688 30.1747 74.8728 30.1055 75.0462 30.0211L74.0607 28.8576L75.0689 27.9705L76.0092 29.0764C76.2435 28.6464 76.3603 28.1702 76.3603 27.648C76.3603 27.2716 76.3002 26.9222 76.1791 26.5996C76.0587 26.2771 75.8888 25.9968 75.6693 25.7587C75.4505 25.5206 75.1864 25.3363 74.8763 25.2057C74.5747 25.0675 74.2419 24.9984 73.8794 24.9984C73.5098 24.9984 73.17 25.0675 72.8598 25.2057C72.5582 25.3363 72.2934 25.5206 72.0669 25.7587C71.8481 25.9968 71.6781 26.2771 71.5571 26.5996C71.4367 26.9222 71.3758 27.2716 71.3758 27.648C71.3758 28.0243 71.4367 28.3737 71.5571 28.6963C71.6781 29.0188 71.8481 29.2991 72.0669 29.5372C72.2934 29.7753 72.5582 29.9635 72.8598 30.1017C73.17 30.2323 73.5098 30.2976 73.8794 30.2976ZM73.8794 31.8643C73.2677 31.8643 72.709 31.7606 72.2028 31.5532C71.6973 31.3382 71.259 31.0425 70.8887 30.6662C70.5189 30.2899 70.2319 29.8445 70.028 29.3299C69.8241 28.8153 69.7221 28.2547 69.7221 27.648C69.7221 27.0412 69.8241 26.4806 70.028 25.966C70.2319 25.4515 70.5189 25.0061 70.8887 24.6297C71.259 24.2534 71.6973 23.9616 72.2028 23.7542C72.709 23.5391 73.2677 23.4316 73.8794 23.4316C74.4841 23.4316 75.0392 23.5391 75.5447 23.7542C76.0509 23.9616 76.485 24.2534 76.8475 24.6297C77.2178 25.0061 77.5045 25.4515 77.7084 25.966C77.9123 26.4806 78.0143 27.0412 78.0143 27.648C78.0143 28.1779 77.935 28.6732 77.7764 29.134C77.6178 29.5948 77.3955 30.0057 77.108 30.3667L77.867 31.2652L76.8588 32.1523L76.0998 31.2652C75.7826 31.4573 75.4392 31.6031 75.0689 31.703C74.6993 31.8105 74.3028 31.8643 73.8794 31.8643ZM82.7822 31.8643C82.3064 31.8643 81.8681 31.7913 81.4681 31.6454C81.068 31.4995 80.7204 31.2883 80.4258 31.0118C80.1313 30.7276 79.9012 30.3782 79.7348 29.9635C79.5684 29.5488 79.4856 29.0726 79.4856 28.535V23.616H81.0942V28.4083C81.0942 29.0457 81.245 29.5257 81.5474 29.8483C81.8568 30.1631 82.2724 30.3206 82.7935 30.3206C83.2997 30.3206 83.7033 30.1631 84.0056 29.8483C84.315 29.5257 84.4701 29.0457 84.4701 28.4083V23.616H86.0787V28.535C86.0787 29.0726 85.9959 29.5488 85.8295 29.9635C85.6631 30.3782 85.433 30.7276 85.1385 31.0118C84.8439 31.2883 84.4963 31.4995 84.0963 31.6454C83.6962 31.7913 83.258 31.8643 82.7822 31.8643ZM89.844 28.5235H91.8152L90.8296 25.5168L89.844 28.5235ZM91.6906 23.616L94.5567 31.68H92.8574L92.291 29.952H89.3683L88.8018 31.68H87.1479L90.014 23.616H91.6906ZM97.2125 27.4636H98.8438C98.9946 27.4636 99.1384 27.4368 99.2743 27.383C99.4173 27.3292 99.5419 27.2525 99.6481 27.1526C99.7536 27.0527 99.8365 26.9299 99.8973 26.784C99.9575 26.638 99.988 26.4729 99.988 26.2886C99.988 26.1043 99.9575 25.9392 99.8973 25.7932C99.8365 25.6397 99.7536 25.5091 99.6481 25.4016C99.5419 25.2941 99.4173 25.2134 99.2743 25.1596C99.1384 25.0982 98.9946 25.0675 98.8438 25.0675H97.2125V27.4636ZM98.5719 28.9152H97.2125V31.68H95.6492V23.616H98.8665C99.2743 23.616 99.6439 23.6813 99.9766 23.8118C100.317 23.9347 100.603 24.1113 100.838 24.3417C101.079 24.5721 101.264 24.8524 101.393 25.1827C101.529 25.5129 101.597 25.8816 101.597 26.2886C101.597 26.8646 101.464 27.3561 101.2 27.7632C100.943 28.1702 100.588 28.4736 100.135 28.6732L102.038 31.68H100.271L98.5719 28.9152ZM103.127 23.616H108.361V25.1136H104.736V26.7494H107.908V28.247H104.736V30.1824H108.361V31.68H103.127V23.616ZM112.677 31.8643C111.007 31.8643 109.848 31.127 109.199 29.6524L110.581 28.9612C110.8 29.422 111.083 29.7753 111.43 30.0211C111.777 30.2668 112.204 30.3897 112.711 30.3897C113.148 30.3897 113.511 30.3014 113.798 30.1248C114.085 29.9481 114.229 29.71 114.229 29.4105C114.229 29.1417 114.111 28.9344 113.877 28.7884C113.651 28.6425 113.363 28.5197 113.016 28.4198C112.677 28.3199 112.306 28.2201 111.906 28.1203C111.505 28.0204 111.132 27.8861 110.785 27.7171C110.445 27.5405 110.157 27.3062 109.924 27.0144C109.697 26.7225 109.584 26.3347 109.584 25.8508C109.584 25.4899 109.652 25.1635 109.788 24.8716C109.931 24.5721 110.128 24.3149 110.377 24.0998C110.633 23.8847 110.943 23.7196 111.306 23.6044C111.668 23.4892 112.076 23.4316 112.529 23.4316C113.254 23.4316 113.896 23.5891 114.455 23.904C115.014 24.2188 115.456 24.695 115.781 25.3324L114.432 26.0467C114.258 25.678 114.009 25.3939 113.685 25.1942C113.36 24.9868 112.978 24.8832 112.541 24.8832C112.11 24.8832 111.777 24.9715 111.544 25.1481C111.309 25.3247 111.193 25.5283 111.193 25.7587C111.193 25.9968 111.306 26.1811 111.532 26.3116C111.766 26.4422 112.057 26.5536 112.405 26.6457C112.752 26.7379 113.125 26.8339 113.526 26.9337C113.926 27.0336 114.3 27.1756 114.648 27.36C114.995 27.5366 115.282 27.7785 115.509 28.0857C115.742 28.3852 115.86 28.7884 115.86 29.2953C115.86 29.687 115.784 30.0403 115.633 30.3552C115.49 30.67 115.278 30.9427 114.999 31.1731C114.719 31.3958 114.383 31.5648 113.991 31.68C113.605 31.8029 113.167 31.8643 112.677 31.8643ZM116.838 30.862C116.838 30.6009 116.925 30.3859 117.099 30.2169C117.28 30.0403 117.495 29.952 117.745 29.952C117.994 29.952 118.205 30.0403 118.379 30.2169C118.56 30.3859 118.651 30.6009 118.651 30.862C118.651 31.1232 118.56 31.3421 118.379 31.5187C118.205 31.6877 117.994 31.7721 117.745 31.7721C117.495 31.7721 117.28 31.6877 117.099 31.5187C116.925 31.3421 116.838 31.1232 116.838 30.862ZM122.987 31.8643C121.318 31.8643 120.158 31.127 119.509 29.6524L120.891 28.9612C121.11 29.422 121.393 29.7753 121.741 30.0211C122.088 30.2668 122.515 30.3897 123.021 30.3897C123.459 30.3897 123.822 30.3014 124.108 30.1248C124.395 29.9481 124.539 29.71 124.539 29.4105C124.539 29.1417 124.422 28.9344 124.188 28.7884C123.961 28.6425 123.674 28.5197 123.327 28.4198C122.987 28.3199 122.617 28.2201 122.217 28.1203C121.817 28.0204 121.443 27.8861 121.095 27.7171C120.755 27.5405 120.468 27.3062 120.234 27.0144C120.008 26.7225 119.894 26.3347 119.894 25.8508C119.894 25.4899 119.962 25.1635 120.098 24.8716C120.242 24.5721 120.438 24.3149 120.687 24.0998C120.944 23.8847 121.254 23.7196 121.616 23.6044C121.979 23.4892 122.386 23.4316 122.84 23.4316C123.565 23.4316 124.207 23.5891 124.765 23.904C125.324 24.2188 125.766 24.695 126.091 25.3324L124.743 26.0467C124.569 25.678 124.32 25.3939 123.995 25.1942C123.67 24.9868 123.289 24.8832 122.851 24.8832C122.42 24.8832 122.088 24.9715 121.854 25.1481C121.62 25.3247 121.503 25.5283 121.503 25.7587C121.503 25.9968 121.616 26.1811 121.843 26.3116C122.077 26.4422 122.367 26.5536 122.715 26.6457C123.063 26.7379 123.436 26.8339 123.837 26.9337C124.237 27.0336 124.61 27.1756 124.958 27.36C125.306 27.5366 125.592 27.7785 125.819 28.0857C126.053 28.3852 126.17 28.7884 126.17 29.2953C126.17 29.687 126.094 30.0403 125.944 30.3552C125.8 30.67 125.589 30.9427 125.309 31.1731C125.03 31.3958 124.694 31.5648 124.301 31.68C123.916 31.8029 123.478 31.8643 122.987 31.8643ZM133.289 23.616V25.1136H130.978V31.68H129.301V25.1136H126.99V23.616H133.289ZM137.853 31.8643C137.378 31.8643 136.939 31.7913 136.539 31.6454C136.139 31.4995 135.792 31.2883 135.497 31.0118C135.203 30.7276 134.972 30.3782 134.806 29.9635C134.64 29.5488 134.557 29.0726 134.557 28.535V23.616H136.165V28.4083C136.165 29.0457 136.316 29.5257 136.619 29.8483C136.928 30.1631 137.344 30.3206 137.865 30.3206C138.371 30.3206 138.775 30.1631 139.077 29.8483C139.386 29.5257 139.541 29.0457 139.541 28.4083V23.616H141.15V28.535C141.15 29.0726 141.067 29.5488 140.901 29.9635C140.734 30.3782 140.504 30.7276 140.21 31.0118C139.915 31.2883 139.568 31.4995 139.167 31.6454C138.767 31.7913 138.329 31.8643 137.853 31.8643ZM142.899 23.616H145.844C146.418 23.616 146.947 23.7196 147.43 23.927C147.914 24.1267 148.329 24.407 148.676 24.768C149.031 25.1289 149.307 25.5551 149.503 26.0467C149.699 26.5382 149.798 27.072 149.798 27.648C149.798 28.224 149.699 28.7577 149.503 29.2492C149.307 29.7408 149.031 30.167 148.676 30.528C148.329 30.8889 147.914 31.1731 147.43 31.3804C146.947 31.5801 146.418 31.68 145.844 31.68H142.899V23.616ZM144.507 25.1136V30.1824H145.652C146.037 30.1824 146.38 30.1209 146.683 29.998C146.992 29.8751 147.252 29.7023 147.464 29.4796C147.683 29.2569 147.849 28.992 147.963 28.6848C148.084 28.3699 148.144 28.0243 148.144 27.648C148.144 27.2716 148.084 26.9299 147.963 26.6227C147.849 26.3078 147.683 26.039 147.464 25.8163C147.252 25.5936 146.992 25.4208 146.683 25.2979C146.38 25.175 146.037 25.1136 145.652 25.1136H144.507ZM151.229 23.616H152.838V31.68H151.229V23.616ZM158.421 31.8643C157.809 31.8643 157.251 31.7606 156.744 31.5532C156.239 31.3382 155.801 31.0425 155.43 30.6662C155.061 30.2899 154.773 29.8445 154.569 29.3299C154.365 28.8153 154.263 28.2547 154.263 27.648C154.263 27.0412 154.365 26.4806 154.569 25.966C154.773 25.4515 155.061 25.0061 155.43 24.6297C155.801 24.2534 156.239 23.9616 156.744 23.7542C157.251 23.5391 157.809 23.4316 158.421 23.4316C159.026 23.4316 159.581 23.5391 160.086 23.7542C160.592 23.9616 161.026 24.2534 161.389 24.6297C161.759 25.0061 162.046 25.4515 162.25 25.966C162.454 26.4806 162.556 27.0412 162.556 27.648C162.556 28.2547 162.454 28.8153 162.25 29.3299C162.046 29.8445 161.759 30.2899 161.389 30.6662C161.026 31.0425 160.592 31.3382 160.086 31.5532C159.581 31.7606 159.026 31.8643 158.421 31.8643ZM158.444 30.3206C158.806 30.3206 159.135 30.2553 159.429 30.1248C159.731 29.9865 159.992 29.7984 160.211 29.5603C160.43 29.3145 160.6 29.0304 160.721 28.7078C160.842 28.3775 160.902 28.0166 160.902 27.6249C160.902 27.2486 160.842 26.8992 160.721 26.5766C160.6 26.254 160.43 25.9737 160.211 25.7356C159.992 25.4975 159.731 25.3132 159.429 25.1827C159.135 25.0444 158.806 24.9753 158.444 24.9753C158.066 24.9753 157.723 25.0444 157.413 25.1827C157.103 25.3132 156.835 25.4975 156.608 25.7356C156.39 25.9737 156.22 26.254 156.099 26.5766C155.978 26.8992 155.917 27.2486 155.917 27.6249C155.917 28.0166 155.978 28.3775 156.099 28.7078C156.22 29.0304 156.39 29.3145 156.608 29.5603C156.835 29.7984 157.103 29.9865 157.413 30.1248C157.723 30.2553 158.066 30.3206 158.444 30.3206Z" fill="white" fill-opacity="0.5"/>
<path fill-rule="evenodd" clip-rule="evenodd" d="M0.0213152 4.31982H27.3839C27.3958 4.31982 27.4053 4.32985 27.4053 4.34222V33.0973C27.4053 33.1096 27.3958 33.1197 27.3839 33.1197H0.0213152C0.00954317 33.1197 0 33.1096 0 33.0973V4.34222C0 4.32985 0.00954317 4.31982 0.0213152 4.31982ZM15.8556 28.3199L16.7098 22.4915C15.7913 22.9693 14.7534 23.2406 13.6573 23.2406C9.89761 23.2406 6.85126 20.0794 6.85126 16.1787C6.85126 14.4414 7.45746 12.8495 8.46166 11.6193C9.14137 10.7765 10.0109 10.1049 10.9998 9.67864C11.8173 9.31698 12.7144 9.11999 13.6573 9.11999C17.417 9.11999 20.5461 12.2812 20.5461 16.1787C20.6344 16.8866 19.9573 21.9295 19.4182 25.9441C19.3033 26.8001 19.1946 27.6094 19.101 28.3199H15.8556ZM14.6034 12.9012C14.3033 12.8075 13.988 12.7592 13.6573 12.7592C11.8356 12.7592 10.36 14.2897 10.36 16.1787C10.36 17.9386 11.6366 19.3851 13.2807 19.5789H13.2838H13.2899L13.3481 19.5853H13.3542L13.3573 19.5886H13.3634H13.3695H13.3757H13.3818H13.3879L13.4155 19.5918H13.4216H13.4277H13.4339L13.4644 19.595H13.4705H13.4737H13.4797L13.4982 19.5982H13.5042H13.5104L13.5685 19.6015H13.5716H13.5747H13.5808H13.6573C15.479 19.6015 16.9578 18.0676 16.9578 16.1787C16.9578 16.1661 16.9571 16.1536 16.9564 16.1407C16.9555 16.127 16.9548 16.1129 16.9548 16.0979V16.0689L16.9517 16.0172V15.985L16.9486 15.9333L16.9455 15.9074L16.9395 15.8428V15.8267C16.9363 15.7976 16.9333 15.7719 16.9303 15.746L16.9272 15.733L16.918 15.6653L16.915 15.6427L16.9058 15.5878L16.9027 15.562L16.8935 15.507L16.8874 15.4812L16.8752 15.4198L16.8721 15.407L16.869 15.3972C16.866 15.3746 16.8598 15.352 16.8537 15.3294L16.8476 15.31L16.8354 15.2584L16.8262 15.2229L16.8139 15.1809L16.8047 15.1519L16.7894 15.0969L16.7802 15.0776C16.7772 15.0663 16.7734 15.055 16.7695 15.0437C16.7657 15.0324 16.7619 15.0211 16.7588 15.0098L16.7557 15.0033L16.7496 14.9872L16.7312 14.9355L16.719 14.9064L16.7037 14.8644L16.6914 14.8322L16.6731 14.7934L16.6608 14.7611L16.6424 14.7224L16.6302 14.6965V14.6933C16.621 14.6739 16.6119 14.6546 16.6026 14.632H16.5996L16.5812 14.59L16.5659 14.5674L16.5476 14.5286L16.5323 14.4996L16.5108 14.4608L16.4955 14.435L16.4741 14.3995V14.3962L16.4404 14.3381L16.4159 14.3026L16.4006 14.2768L16.373 14.238L16.3638 14.2219L16.3332 14.1799L16.324 14.1637C16.275 14.096 16.226 14.0314 16.174 13.9701L16.1648 13.9571L16.1342 13.9184L16.1189 13.9022L16.0852 13.8635L16.0791 13.857L16.0762 13.8538C16.0345 13.8065 15.9954 13.7624 15.9506 13.7214L15.9444 13.715L15.9046 13.673L15.8984 13.6665C15.8036 13.5793 15.7056 13.4921 15.6015 13.4146L15.5953 13.4114C15.5097 13.3468 15.4209 13.2855 15.329 13.2274H15.3259C15.1024 13.0917 14.8605 12.9819 14.6064 12.9012H14.6034Z" fill="white" fill-opacity="0.5"/>
</svg>
